<svg width="20" height="20" viewBox="0 0 20 20" fill="none" xmlns="http://www.w3.org/2000/svg">
<path d="M19.0813 4.68754C18.9913 4.63138 18.8885 4.59905 18.7826 4.59358C18.6766 4.58811 18.5711 4.60969 18.4758 4.65629C15.1219 6.29691 12.7266 5.52816 10.1945 4.71722C7.53125 3.86957 4.78125 2.99066 0.975781 4.84847C0.870685 4.89979 0.782094 4.97956 0.720084 5.07872C0.658073 5.17788 0.62513 5.29246 0.625 5.40941V14.7789C0.624985 14.885 0.651952 14.9893 0.703363 15.082C0.754773 15.1748 0.828937 15.2529 0.918875 15.3091C1.00881 15.3653 1.11157 15.3977 1.21747 15.4032C1.32336 15.4087 1.42893 15.3872 1.52422 15.3407C4.87813 13.7 7.27344 14.4688 9.80937 15.2797C11.3125 15.7602 12.8438 16.25 14.575 16.25C15.9102 16.25 17.3664 15.9594 19.0211 15.1516C19.1262 15.1003 19.2148 15.0205 19.2768 14.9213C19.3388 14.8222 19.3717 14.7076 19.3719 14.5907V5.22113C19.3728 5.11481 19.3466 5.01001 19.2958 4.91664C19.2449 4.82327 19.1711 4.74441 19.0813 4.68754ZM3.75 11.875C3.75 12.0408 3.68415 12.1998 3.56694 12.317C3.44973 12.4342 3.29076 12.5 3.125 12.5C2.95924 12.5 2.80027 12.4342 2.68306 12.317C2.56585 12.1998 2.5 12.0408 2.5 11.875V6.87504C2.5 6.70928 2.56585 6.55031 2.68306 6.43309C2.80027 6.31588 2.95924 6.25004 3.125 6.25004C3.29076 6.25004 3.44973 6.31588 3.56694 6.43309C3.68415 6.55031 3.75 6.70928 3.75 6.87504V11.875ZM10 12.5C9.50555 12.5 9.0222 12.3534 8.61107 12.0787C8.19995 11.804 7.87952 11.4136 7.6903 10.9567C7.50108 10.4999 7.45157 9.99726 7.54804 9.51231C7.6445 9.02736 7.8826 8.5819 8.23223 8.23227C8.58186 7.88264 9.02732 7.64454 9.51227 7.54807C9.99723 7.45161 10.4999 7.50112 10.9567 7.69034C11.4135 7.87956 11.804 8.19999 12.0787 8.61111C12.3534 9.02223 12.5 9.50558 12.5 10C12.5 10.6631 12.2366 11.299 11.7678 11.7678C11.2989 12.2366 10.663 12.5 10 12.5ZM17.5 13.125C17.5 13.2908 17.4342 13.4498 17.3169 13.567C17.1997 13.6842 17.0408 13.75 16.875 13.75C16.7092 13.75 16.5503 13.6842 16.4331 13.567C16.3158 13.4498 16.25 13.2908 16.25 13.125V8.12504C16.25 7.95928 16.3158 7.80031 16.4331 7.68309C16.5503 7.56588 16.7092 7.50004 16.875 7.50004C17.0408 7.50004 17.1997 7.56588 17.3169 7.68309C17.4342 7.80031 17.5 7.95928 17.5 8.12504V13.125Z" fill="white"/>
</svg>
