<svg width="128" height="32" viewBox="0 0 128 32" fill="none" xmlns="http://www.w3.org/2000/svg">
<g clip-path="url(#clip0_8009_14427)">
<path d="M16.5898 15.3387C18.8387 12.53 22.288 9.37558 27.394 7.16129C27.3732 6.46313 27.3502 5.75806 27.3502 5.04378C22.2626 4.82949 17.6935 3.2235 13.7304 0C9.7396 3.30415 5.129 4.79032 0.0529612 5.08295C-0.0783752 7.85945 0.0253114 10.5253 0.516095 13.1544L10.6359 22.7788C11.2073 23.3226 12.1451 23.1221 12.4424 22.3917C13.235 20.447 14.5322 17.9078 16.5875 15.3387H16.5898Z" fill="#03B156"/>
<path d="M18.4078 16.8779C14.5644 21.6313 13.5829 26.3756 13.5737 26.4216L13.5575 26.5046C13.3847 27.3687 12.3271 27.7028 11.6889 27.0968L1.70961 17.6129C3.758 23.4677 7.43772 28.1705 12.864 31.6636C13.4999 32.0737 13.9999 32.1475 14.6013 31.6636C16.175 30.3986 17.8939 29.2857 19.3317 27.8825C24.1244 23.212 26.5575 17.3663 27.3179 10.8041C27.3548 10.4793 27.3778 10.1544 27.3939 9.82718C23.8617 11.4954 20.8571 13.8479 18.4078 16.8802V16.8779Z" fill="#03B156"/>
</g>
<path d="M36.5 24.5L31.22 9.6H33.76L38.08 22.32H37.58L41.88 9.6H44.42L39.14 24.5H36.5ZM50.0367 24.74C48.9567 24.74 47.9967 24.4933 47.1567 24C46.3301 23.4933 45.6834 22.8133 45.2167 21.96C44.7501 21.0933 44.5167 20.1267 44.5167 19.06C44.5167 17.9667 44.7501 17 45.2167 16.16C45.6967 15.32 46.3367 14.66 47.1367 14.18C47.9367 13.6867 48.8434 13.44 49.8567 13.44C50.6701 13.44 51.3967 13.58 52.0367 13.86C52.6767 14.14 53.2167 14.5267 53.6567 15.02C54.0967 15.5 54.4301 16.0533 54.6567 16.68C54.8967 17.3067 55.0167 17.9733 55.0167 18.68C55.0167 18.8533 55.0101 19.0333 54.9967 19.22C54.9834 19.4067 54.9567 19.58 54.9167 19.74H46.2967V17.94H53.6367L52.5567 18.76C52.6901 18.1067 52.6434 17.5267 52.4167 17.02C52.2034 16.5 51.8701 16.0933 51.4167 15.8C50.9767 15.4933 50.4567 15.34 49.8567 15.34C49.2567 15.34 48.7234 15.4933 48.2567 15.8C47.7901 16.0933 47.4301 16.52 47.1767 17.08C46.9234 17.6267 46.8234 18.2933 46.8767 19.08C46.8101 19.8133 46.9101 20.4533 47.1767 21C47.4567 21.5467 47.8434 21.9733 48.3367 22.28C48.8434 22.5867 49.4167 22.74 50.0567 22.74C50.7101 22.74 51.2634 22.5933 51.7167 22.3C52.1834 22.0067 52.5501 21.6267 52.8167 21.16L54.6567 22.06C54.4434 22.5667 54.1101 23.0267 53.6567 23.44C53.2167 23.84 52.6834 24.16 52.0567 24.4C51.4434 24.6267 50.7701 24.74 50.0367 24.74ZM57.2223 24.5V13.68H59.3823V15.86L59.1823 15.54C59.4223 14.8333 59.809 14.3267 60.3423 14.02C60.8757 13.7 61.5157 13.54 62.2623 13.54H62.9223V15.6H61.9823C61.2357 15.6 60.629 15.8333 60.1623 16.3C59.709 16.7533 59.4823 17.4067 59.4823 18.26V24.5H57.2223ZM64.4684 24.5V13.68H66.7284V24.5H64.4684ZM64.4684 12.2V9.6H66.7284V12.2H64.4684ZM76.8669 24.74C75.7602 24.74 74.7869 24.4667 73.9469 23.92C73.1202 23.3733 72.5402 22.64 72.2069 21.72L73.9469 20.9C74.2402 21.5133 74.6402 22 75.1469 22.36C75.6669 22.72 76.2402 22.9 76.8669 22.9C77.4002 22.9 77.8335 22.78 78.1669 22.54C78.5002 22.3 78.6669 21.9733 78.6669 21.56C78.6669 21.2933 78.5935 21.08 78.4469 20.92C78.3002 20.7467 78.1135 20.6067 77.8869 20.5C77.6735 20.3933 77.4535 20.3133 77.2269 20.26L75.5269 19.78C74.5935 19.5133 73.8935 19.1133 73.4269 18.58C72.9735 18.0333 72.7469 17.4 72.7469 16.68C72.7469 16.0267 72.9135 15.46 73.2469 14.98C73.5802 14.4867 74.0402 14.1067 74.6269 13.84C75.2135 13.5733 75.8735 13.44 76.6069 13.44C77.5935 13.44 78.4735 13.6867 79.2469 14.18C80.0202 14.66 80.5669 15.3333 80.8869 16.2L79.1469 17.02C78.9335 16.5 78.5935 16.0867 78.1269 15.78C77.6735 15.4733 77.1602 15.32 76.5869 15.32C76.0935 15.32 75.7002 15.44 75.4069 15.68C75.1135 15.9067 74.9669 16.2067 74.9669 16.58C74.9669 16.8333 75.0335 17.0467 75.1669 17.22C75.3002 17.38 75.4735 17.5133 75.6869 17.62C75.9002 17.7133 76.1202 17.7933 76.3469 17.86L78.1069 18.38C79.0002 18.6333 79.6869 19.0333 80.1669 19.58C80.6469 20.1133 80.8869 20.7533 80.8869 21.5C80.8869 22.14 80.7135 22.7067 80.3669 23.2C80.0335 23.68 79.5669 24.06 78.9669 24.34C78.3669 24.6067 77.6669 24.74 76.8669 24.74ZM88.2413 24.74C87.1613 24.74 86.2013 24.4933 85.3613 24C84.5346 23.4933 83.8746 22.8133 83.3813 21.96C82.9013 21.1067 82.6613 20.14 82.6613 19.06C82.6613 17.9933 82.9013 17.0333 83.3813 16.18C83.8613 15.3267 84.5213 14.66 85.3613 14.18C86.2013 13.6867 87.1613 13.44 88.2413 13.44C88.9746 13.44 89.6613 13.5733 90.3013 13.84C90.9413 14.0933 91.4946 14.4467 91.9613 14.9C92.4413 15.3533 92.7946 15.88 93.0213 16.48L91.0413 17.4C90.8146 16.84 90.4479 16.3933 89.9413 16.06C89.4479 15.7133 88.8813 15.54 88.2413 15.54C87.6279 15.54 87.0746 15.6933 86.5813 16C86.1013 16.2933 85.7213 16.7133 85.4413 17.26C85.1613 17.7933 85.0213 18.4 85.0213 19.08C85.0213 19.76 85.1613 20.3733 85.4413 20.92C85.7213 21.4533 86.1013 21.8733 86.5813 22.18C87.0746 22.4867 87.6279 22.64 88.2413 22.64C88.8946 22.64 89.4613 22.4733 89.9413 22.14C90.4346 21.7933 90.8013 21.3333 91.0413 20.76L93.0213 21.7C92.8079 22.2733 92.4613 22.7933 91.9813 23.26C91.5146 23.7133 90.9613 24.0733 90.3213 24.34C89.6813 24.6067 88.9879 24.74 88.2413 24.74ZM95.2302 24.5V13.68H97.3902V15.86L97.1902 15.54C97.4302 14.8333 97.8168 14.3267 98.3502 14.02C98.8835 13.7 99.5235 13.54 100.27 13.54H100.93V15.6H99.9902C99.2435 15.6 98.6368 15.8333 98.1702 16.3C97.7168 16.7533 97.4902 17.4067 97.4902 18.26V24.5H95.2302ZM102.476 24.5V13.68H104.736V24.5H102.476ZM102.476 12.2V9.6H104.736V12.2H102.476ZM107.379 28.5V13.68H109.539V15.92L109.279 15.4C109.679 14.7867 110.212 14.3067 110.879 13.96C111.545 13.6133 112.305 13.44 113.159 13.44C114.185 13.44 115.105 13.6867 115.919 14.18C116.745 14.6733 117.392 15.3467 117.859 16.2C118.339 17.0533 118.579 18.0133 118.579 19.08C118.579 20.1467 118.339 21.1067 117.859 21.96C117.392 22.8133 116.752 23.4933 115.939 24C115.125 24.4933 114.199 24.74 113.159 24.74C112.319 24.74 111.552 24.5667 110.859 24.22C110.179 23.8733 109.652 23.3733 109.279 22.72L109.639 22.3V28.5H107.379ZM112.939 22.64C113.579 22.64 114.145 22.4867 114.639 22.18C115.132 21.8733 115.519 21.4533 115.799 20.92C116.092 20.3733 116.239 19.76 116.239 19.08C116.239 18.4 116.092 17.7933 115.799 17.26C115.519 16.7267 115.132 16.3067 114.639 16C114.145 15.6933 113.579 15.54 112.939 15.54C112.312 15.54 111.745 15.6933 111.239 16C110.745 16.3067 110.352 16.7267 110.059 17.26C109.779 17.7933 109.639 18.4 109.639 19.08C109.639 19.76 109.779 20.3733 110.059 20.92C110.352 21.4533 110.745 21.8733 111.239 22.18C111.745 22.4867 112.312 22.64 112.939 22.64ZM125.262 24.62C124.128 24.62 123.248 24.3 122.622 23.66C121.995 23.02 121.682 22.12 121.682 20.96V15.72H119.782V13.68H120.082C120.588 13.68 120.982 13.5333 121.262 13.24C121.542 12.9467 121.682 12.5467 121.682 12.04V11.2H123.942V13.68H126.402V15.72H123.942V20.86C123.942 21.2333 124.002 21.5533 124.122 21.82C124.242 22.0733 124.435 22.2733 124.702 22.42C124.968 22.5533 125.315 22.62 125.742 22.62C125.848 22.62 125.968 22.6133 126.102 22.6C126.235 22.5867 126.362 22.5733 126.482 22.56V24.5C126.295 24.5267 126.088 24.5533 125.862 24.58C125.635 24.6067 125.435 24.62 125.262 24.62Z" fill="#6F707E"/>
<defs>
<clipPath id="clip0_8009_14427">
<rect width="27.394" height="32" fill="white"/>
</clipPath>
</defs>
</svg>
