<svg width="24" height="24" viewBox="0 0 24 24" fill="none" xmlns="http://www.w3.org/2000/svg">
<path d="M20.2906 3.71249C19.3541 2.77606 18.0839 2.25 16.7595 2.25C15.4351 2.25 14.165 2.77606 13.2284 3.71249L3.71281 13.2272C2.79602 14.1676 2.28664 15.4313 2.29502 16.7446C2.30341 18.0579 2.82888 19.315 3.75761 20.2436C4.68634 21.1722 5.94352 21.6975 7.25683 21.7057C8.57013 21.7139 9.83379 21.2044 10.7741 20.2875L20.2906 10.7728C21.2253 9.83572 21.7502 8.56619 21.7502 7.24264C21.7502 5.91909 21.2253 4.64956 20.2906 3.71249ZM19.2294 9.71248L14.4716 14.4694L9.53187 9.53061L14.2897 4.7728C14.9473 4.13035 15.8317 3.77307 16.7511 3.77844C17.6704 3.78381 18.5506 4.1514 19.2007 4.80149C19.8508 5.45158 20.2184 6.33175 20.2237 7.25109C20.2291 8.17044 19.8718 9.05484 19.2294 9.71248ZM17.7828 7.71936C17.8525 7.78901 17.9079 7.87173 17.9456 7.96278C17.9833 8.05383 18.0028 8.15142 18.0028 8.24998C18.0028 8.34855 17.9833 8.44614 17.9456 8.53719C17.9079 8.62824 17.8525 8.71096 17.7828 8.78061L15.5328 11.0306C15.4631 11.1002 15.3804 11.1554 15.2894 11.1931C15.1984 11.2308 15.1008 11.2501 15.0023 11.2501C14.9038 11.25 14.8063 11.2306 14.7153 11.1928C14.6243 11.1551 14.5416 11.0998 14.472 11.0301C14.4024 10.9605 14.3472 10.8777 14.3095 10.7867C14.2719 10.6957 14.2525 10.5982 14.2526 10.4997C14.2526 10.4012 14.2721 10.3036 14.3098 10.2126C14.3475 10.1216 14.4028 10.039 14.4725 9.96936L16.7225 7.71936C16.8631 7.57881 17.0538 7.49986 17.2527 7.49986C17.4515 7.49986 17.6422 7.57881 17.7828 7.71936Z" fill="#FE7500"/>
</svg>
