<svg width="20" height="20" viewBox="0 0 20 20" fill="none" xmlns="http://www.w3.org/2000/svg">
<path d="M18.7501 9.99146C18.7507 10.2142 18.6918 10.433 18.5794 10.6253C18.4671 10.8176 18.3054 10.9764 18.1111 11.0852L4.99232 18.586C4.80406 18.6927 4.59153 18.7492 4.37513 18.7501C4.17575 18.749 3.97952 18.7002 3.80281 18.6079C3.62611 18.5155 3.47407 18.3822 3.35937 18.2191C3.24468 18.056 3.17066 17.8679 3.1435 17.6703C3.11635 17.4728 3.13683 17.2716 3.20326 17.0837L5.31263 10.8376C5.33325 10.7765 5.37224 10.7233 5.42427 10.6852C5.4763 10.6472 5.53882 10.6262 5.60326 10.6251H11.2501C11.3358 10.6252 11.4206 10.6078 11.4993 10.5738C11.5779 10.5399 11.6488 10.4901 11.7074 10.4276C11.766 10.3651 11.8111 10.2912 11.84 10.2106C11.8688 10.1299 11.8808 10.0441 11.8751 9.95865C11.861 9.79794 11.7866 9.64851 11.6669 9.54029C11.5473 9.43207 11.3911 9.37305 11.2298 9.37506H5.60482C5.53944 9.37506 5.4757 9.35456 5.42259 9.31644C5.36947 9.27832 5.32965 9.2245 5.30873 9.16256L3.19935 2.91724C3.11539 2.67786 3.10626 2.4186 3.17315 2.17391C3.24005 1.92921 3.37981 1.71066 3.57388 1.54728C3.76794 1.38391 4.00712 1.28345 4.25964 1.25924C4.51216 1.23504 4.76607 1.28824 4.98763 1.41178L18.1126 8.90318C18.3058 9.01178 18.4667 9.16979 18.5787 9.36102C18.6907 9.55226 18.7499 9.76984 18.7501 9.99146Z" fill="white"/>
</svg>
