<svg width="1009" height="557" viewBox="0 0 1009 557" fill="none" xmlns="http://www.w3.org/2000/svg">
<path opacity="0.2" d="M348.004 534.444C343.829 555.31 318.28 563.379 302.862 548.745L8.41274 268.859C-1.82898 259.122 -2.83088 243.208 6.01929 232.246L8.57972 229.13C18.5431 216.888 36.8001 215.664 48.2664 226.57L277.536 444.525C291.34 457.657 313.994 452.816 321.175 435.177C340.322 388.214 371.66 326.895 421.31 264.853C511.314 152.398 680.748 17.0735 980.207 0.0466543C995.402 -0.843637 1008.32 11.1197 1008.76 26.3659L1008.93 32.5423C1009.32 47.1208 998.018 59.418 983.435 60.197C759.175 72.6611 584.955 153.9 465.227 301.911C372.383 416.703 348.672 531.273 348.449 532.385L348.059 534.389L348.004 534.444Z" fill="white"/>
</svg>
